# MagicaVoxel @ Ephtracy

# group
o 

# material
mtllib binocularsmergedcut.mtl
usemtl palette

# normals
vn -1 0 0
vn 1 0 0
vn 0 0 1
vn 0 0 -1
vn 0 -1 0
vn 0 1 0

# texcoords
vt 0.896484 0.5
vt 0.919922 0.5
vt 0.931641 0.5
vt 0.951172 0.5

# verts
v -2 1.8 0.4
v -2 1.8 -1.5
v -2 2 0.4
v -2 2 -1.3
v -2 2.6 0.3
v -2 2.6 -1.3
v -2 2.8 0.3
v -2 2.8 -1.5
v -1.8 1.6 0.4
v -1.8 1.6 -1.5
v -1.8 1.7 0.4
v -1.8 1.7 0.3
v -1.8 1.8 0.3
v -1.8 1.8 -1.5
v -1.8 2 0.3
v -1.8 2 -1.3
v -1.8 2.2 0.3
v -1.8 2.2 -1.3
v -1.8 2.8 0.3
v -1.8 2.8 -1.5
v -1.8 3 0.3
v -1.8 3 -1.5
v -1.6 2.2 0.3
v -1.6 2.2 -1.3
v -1.6 2.6 0.3
v -1.6 2.6 -1.3
v -1.4 2 -1.5
v -1.4 2 -3.3
v -1.4 2.6 -1.5
v -1.4 2.6 -3.3
v -1.2 1.8 -1.5
v -1.2 1.8 -3.3
v -1.2 2 -1.5
v -1.2 2 -3.3
v -1.2 2 -3.5
v -1.2 2.6 -1.5
v -1.2 2.6 -3.3
v -1.2 2.6 -3.5
v -1.2 2.8 -1.5
v -1.2 2.8 -3.3
v -1 1.8 -3.3
v -1 1.8 -3.5
v -1 2 -3.3
v -1 2 -3.5
v -1 2.6 -3.3
v -1 2.6 -3.5
v -1 2.8 -3.3
v -1 2.8 -3.5
v -1 3 0.3
v -1 3 -1.5
v -1 3.2 0.3
v -1 3.2 -1.5
v -0.6 1.6 0.3
v -0.6 1.6 -1.5
v -0.6 1.8 0.3
v -0.6 1.8 -1.5
v -0.5 2.8 -1.5
v -0.5 2.8 -1.9
v -0.5 3.2 0.1
v -0.5 3.2 -0.7
v -0.5 3.2 -1.5
v -0.5 3.2 -1.9
v -0.5 3.4 0.1
v -0.5 3.4 -0.7
v -0.4 2 0.3
v -0.4 2 -1.5
v -0.4 2 -1.7
v -0.4 2 -3.5
v -0.4 2.1 0.3
v -0.4 2.1 -1.5
v -0.4 2.1 -1.7
v -0.4 2.1 -3.5
v -0.4 2.5 0.3
v -0.4 2.5 -1.5
v -0.4 2.5 -3.5
v -0.4 2.6 0.3
v -0.4 2.6 -1.5
v -0.4 2.6 -3.5
v -0.2 1.8 -1.5
v -0.2 1.8 -1.7
v -0.2 1.8 -3.3
v -0.2 1.8 -3.5
v -0.2 2 -1.5
v -0.2 2 -1.7
v -0.2 2 -3.3
v -0.2 2 -3.5
v -0.2 2.6 -1.5
v -0.2 2.6 -1.7
v -0.2 2.6 -3.3
v -0.2 2.6 -3.5
v -0.2 2.8 0.1
v -0.2 2.8 -0.7
v -0.2 2.8 -1.5
v -0.2 2.8 -1.7
v -0.2 2.8 -3.3
v -0.2 2.8 -3.5
v -0.2 3.2 0.1
v -0.2 3.2 -0.7
v 0.4 2 0.3
v 0.4 2 -1.5
v 0.4 2 -3.5
v 0.4 2.1 0.3
v 0.4 2.1 -1.5
v 0.4 2.1 -3.5
v 0.4 2.5 0.3
v 0.4 2.5 -1.5
v 0.4 2.5 -3.5
v 0.4 2.6 0.3
v 0.4 2.6 -1.5
v 0.4 2.6 -3.5
v 0.5 2.1 0.3
v 0.5 2.1 -1.5
v 0.5 2.1 -3.5
v 0.5 2.5 0.3
v 0.5 2.5 -1.5
v 0.5 2.5 -3.5
v 0.8 1.6 0.3
v 0.8 1.6 -1.5
v 0.8 1.8 0.3
v 0.8 1.8 -1.5
v -1.9 1.9 0.4
v -1.9 1.9 0.3
v -1.9 2 0.4
v -1.9 2 0.3
v -1.8 1.8 0.4
v -1.8 1.8 0.3
v -1.8 1.9 0.4
v -1.8 1.9 0.3
v -1.7 1.6 0.4
v -1.7 1.6 0.3
v -1.7 1.7 0.4
v -1.7 1.7 0.3
v -1.4 1.6 0.3
v -1.4 1.6 -1.5
v -1.4 1.8 0.3
v -1.4 1.8 -1.5
v -1.1 2.1 0.3
v -1.1 2.1 -1.5
v -1.1 2.1 -3.5
v -1.1 2.5 0.3
v -1.1 2.5 -1.5
v -1.1 2.5 -3.5
v -1 2 0.3
v -1 2 -1.5
v -1 2 -3.5
v -1 2.1 0.3
v -1 2.1 -1.5
v -1 2.1 -3.5
v -1 2.5 0.3
v -1 2.5 -1.5
v -1 2.5 -3.5
v -1 2.6 0.3
v -1 2.6 -1.5
v -1 2.6 -3.5
v -0.4 1.8 -1.5
v -0.4 1.8 -1.7
v -0.4 1.8 -3.3
v -0.4 1.8 -3.5
v -0.4 2 -1.5
v -0.4 2 -1.7
v -0.4 2 -3.3
v -0.4 2 -3.5
v -0.4 2.6 -1.5
v -0.4 2.6 -1.7
v -0.4 2.6 -3.3
v -0.4 2.6 -3.5
v -0.4 2.8 -1.5
v -0.4 2.8 -1.7
v -0.4 2.8 -3.3
v -0.4 2.8 -3.5
v -0.3 2.8 0.1
v -0.3 2.8 -0.7
v -0.3 3.2 0.1
v -0.3 3.2 -0.7
v -0.2 2 0.3
v -0.2 2 -1.5
v -0.2 2 -1.7
v -0.2 2 -3.5
v -0.2 2.1 0.3
v -0.2 2.1 -1.5
v -0.2 2.1 -1.7
v -0.2 2.1 -3.5
v -0.2 2.5 0.3
v -0.2 2.5 -1.5
v -0.2 2.5 -3.5
v -0.2 2.6 0.3
v -0.2 2.6 -1.5
v -0.2 2.6 -3.5
v -0.0999999 2.8 -1.5
v -0.0999999 2.8 -1.9
v -0.0999999 3.2 0.1
v -0.0999999 3.2 -0.7
v -0.0999999 3.2 -1.5
v -0.0999999 3.2 -1.9
v -0.0999999 3.4 0.1
v -0.0999999 3.4 -0.7
v 2.38419e-007 1.6 0.3
v 2.38419e-007 1.6 -1.5
v 2.38419e-007 1.8 0.3
v 2.38419e-007 1.8 -1.5
v 0.4 1.8 -3.3
v 0.4 1.8 -3.5
v 0.4 2 -3.3
v 0.4 2 -3.5
v 0.4 2.6 -3.3
v 0.4 2.6 -3.5
v 0.4 2.8 -3.3
v 0.4 2.8 -3.5
v 0.4 3 0.3
v 0.4 3 -1.5
v 0.4 3.2 0.3
v 0.4 3.2 -1.5
v 0.6 1.8 -1.5
v 0.6 1.8 -3.3
v 0.6 2 -1.5
v 0.6 2 -3.3
v 0.6 2 -3.5
v 0.6 2.6 -1.5
v 0.6 2.6 -3.3
v 0.6 2.6 -3.5
v 0.6 2.8 -1.5
v 0.6 2.8 -3.3
v 0.8 2 -1.5
v 0.8 2 -3.3
v 0.8 2.6 -1.5
v 0.8 2.6 -3.3
v 1 2.2 0.3
v 1 2.2 -1.3
v 1 2.6 0.3
v 1 2.6 -1.3
v 1.2 1.6 0.3
v 1.2 1.6 -1.5
v 1.2 1.8 0.3
v 1.2 1.8 -1.5
v 1.2 2 0.3
v 1.2 2 -1.3
v 1.2 2.2 0.3
v 1.2 2.2 -1.3
v 1.2 2.8 0.3
v 1.2 2.8 -1.5
v 1.2 3 0.3
v 1.2 3 -1.5
v 1.4 1.8 0.3
v 1.4 1.8 -1.5
v 1.4 2 0.3
v 1.4 2 -1.3
v 1.4 2.6 0.3
v 1.4 2.6 -1.3
v 1.4 2.8 0.3
v 1.4 2.8 -1.5
v -2 1.8 0.4
v -2 2 0.4
v -1.9 1.9 0.4
v -1.9 2 0.4
v -1.8 1.6 0.4
v -1.8 1.7 0.4
v -1.8 1.8 0.4
v -1.8 1.9 0.4
v -1.7 1.6 0.4
v -1.7 1.7 0.4
v -2 2.6 0.3
v -2 2.8 0.3
v -1.9 1.9 0.3
v -1.9 2 0.3
v -1.8 1.7 0.3
v -1.8 1.8 0.3
v -1.8 1.9 0.3
v -1.8 2 0.3
v -1.8 2.2 0.3
v -1.8 2.8 0.3
v -1.8 3 0.3
v -1.7 1.6 0.3
v -1.7 1.7 0.3
v -1.6 2 0.3
v -1.6 2.2 0.3
v -1.6 2.6 0.3
v -1.4 1.6 0.3
v -1.4 1.8 0.3
v -1.4 2 0.3
v -1.4 2.6 0.3
v -1.1 2.1 0.3
v -1.1 2.5 0.3
v -1 2 0.3
v -1 2.1 0.3
v -1 2.5 0.3
v -1 2.6 0.3
v -1 3 0.3
v -1 3.2 0.3
v -0.6 1.6 0.3
v -0.6 1.8 0.3
v -0.4 2 0.3
v -0.4 2.1 0.3
v -0.4 2.5 0.3
v -0.4 2.6 0.3
v -0.2 2 0.3
v -0.2 2.1 0.3
v -0.2 2.5 0.3
v -0.2 2.6 0.3
v 2.38419e-007 1.6 0.3
v 2.38419e-007 1.8 0.3
v 0.4 2 0.3
v 0.4 2.1 0.3
v 0.4 2.5 0.3
v 0.4 2.6 0.3
v 0.4 3 0.3
v 0.4 3.2 0.3
v 0.5 2.1 0.3
v 0.5 2.5 0.3
v 0.8 1.6 0.3
v 0.8 1.8 0.3
v 0.8 2 0.3
v 0.8 2.6 0.3
v 1 2 0.3
v 1 2.2 0.3
v 1 2.6 0.3
v 1.2 1.6 0.3
v 1.2 1.8 0.3
v 1.2 2 0.3
v 1.2 2.2 0.3
v 1.2 2.8 0.3
v 1.2 3 0.3
v 1.4 1.8 0.3
v 1.4 2 0.3
v 1.4 2.6 0.3
v 1.4 2.8 0.3
v -0.5 3.2 0.1
v -0.5 3.4 0.1
v -0.0999999 3.2 0.1
v -0.0999999 3.4 0.1
v -0.3 2.8 -0.7
v -0.3 3.2 -0.7
v -0.2 2.8 -0.7
v -0.2 3.2 -0.7
v -2 2 -1.3
v -2 2.6 -1.3
v -1.8 2 -1.3
v -1.8 2.2 -1.3
v -1.6 2.2 -1.3
v -1.6 2.6 -1.3
v 1 2.2 -1.3
v 1 2.6 -1.3
v 1.2 2 -1.3
v 1.2 2.2 -1.3
v 1.4 2 -1.3
v 1.4 2.6 -1.3
v -0.4 1.8 -1.7
v -0.4 2 -1.7
v -0.4 2.1 -1.7
v -0.4 2.6 -1.7
v -0.4 2.8 -1.7
v -0.2 1.8 -1.7
v -0.2 2 -1.7
v -0.2 2.1 -1.7
v -0.2 2.6 -1.7
v -0.2 2.8 -1.7
v -0.3 2.8 0.1
v -0.3 3.2 0.1
v -0.2 2.8 0.1
v -0.2 3.2 0.1
v -0.5 3.2 -0.7
v -0.5 3.4 -0.7
v -0.0999999 3.2 -0.7
v -0.0999999 3.4 -0.7
v -2 1.8 -1.5
v -2 2.8 -1.5
v -1.8 1.6 -1.5
v -1.8 1.8 -1.5
v -1.8 2.8 -1.5
v -1.8 3 -1.5
v -1.4 1.6 -1.5
v -1.4 1.8 -1.5
v -1.4 2 -1.5
v -1.4 2.6 -1.5
v -1.2 1.8 -1.5
v -1.2 2 -1.5
v -1.2 2.6 -1.5
v -1.2 2.8 -1.5
v -1 3 -1.5
v -1 3.2 -1.5
v -0.6 1.6 -1.5
v -0.6 1.8 -1.5
v -0.5 2.8 -1.5
v -0.5 3.2 -1.5
v -0.4 1.8 -1.5
v -0.4 2 -1.5
v -0.4 2.1 -1.5
v -0.4 2.6 -1.5
v -0.4 2.8 -1.5
v -0.2 1.8 -1.5
v -0.2 2 -1.5
v -0.2 2.1 -1.5
v -0.2 2.6 -1.5
v -0.2 2.8 -1.5
v -0.0999999 2.8 -1.5
v -0.0999999 3.2 -1.5
v 2.38419e-007 1.6 -1.5
v 2.38419e-007 1.8 -1.5
v 0.4 3 -1.5
v 0.4 3.2 -1.5
v 0.6 1.8 -1.5
v 0.6 2 -1.5
v 0.6 2.6 -1.5
v 0.6 2.8 -1.5
v 0.8 1.6 -1.5
v 0.8 1.8 -1.5
v 0.8 2 -1.5
v 0.8 2.6 -1.5
v 1.2 1.6 -1.5
v 1.2 1.8 -1.5
v 1.2 2.8 -1.5
v 1.2 3 -1.5
v 1.4 1.8 -1.5
v 1.4 2.8 -1.5
v -0.5 2.8 -1.9
v -0.5 3.2 -1.9
v -0.0999999 2.8 -1.9
v -0.0999999 3.2 -1.9
v -1.4 2 -3.3
v -1.4 2.6 -3.3
v -1.2 1.8 -3.3
v -1.2 2 -3.3
v -1.2 2.6 -3.3
v -1.2 2.8 -3.3
v -1 1.8 -3.3
v -1 2 -3.3
v -1 2.6 -3.3
v -1 2.8 -3.3
v -0.4 1.8 -3.3
v -0.4 2 -3.3
v -0.4 2.6 -3.3
v -0.4 2.8 -3.3
v -0.2 1.8 -3.3
v -0.2 2 -3.3
v -0.2 2.6 -3.3
v -0.2 2.8 -3.3
v 0.4 1.8 -3.3
v 0.4 2 -3.3
v 0.4 2.6 -3.3
v 0.4 2.8 -3.3
v 0.6 1.8 -3.3
v 0.6 2 -3.3
v 0.6 2.6 -3.3
v 0.6 2.8 -3.3
v 0.8 2 -3.3
v 0.8 2.6 -3.3
v -1.2 2 -3.5
v -1.2 2.6 -3.5
v -1.1 2.1 -3.5
v -1.1 2.5 -3.5
v -1 1.8 -3.5
v -1 2 -3.5
v -1 2.1 -3.5
v -1 2.5 -3.5
v -1 2.6 -3.5
v -1 2.8 -3.5
v -0.4 1.8 -3.5
v -0.4 2 -3.5
v -0.4 2.1 -3.5
v -0.4 2.5 -3.5
v -0.4 2.6 -3.5
v -0.4 2.8 -3.5
v -0.2 1.8 -3.5
v -0.2 2 -3.5
v -0.2 2.1 -3.5
v -0.2 2.5 -3.5
v -0.2 2.6 -3.5
v -0.2 2.8 -3.5
v 0.4 1.8 -3.5
v 0.4 2 -3.5
v 0.4 2.1 -3.5
v 0.4 2.5 -3.5
v 0.4 2.6 -3.5
v 0.4 2.8 -3.5
v 0.5 2.1 -3.5
v 0.5 2.5 -3.5
v 0.6 2 -3.5
v 0.6 2.6 -3.5
v -1.8 1.6 0.4
v -1.7 1.6 0.4
v -1.7 1.6 0.3
v -1.4 1.6 0.3
v -0.6 1.6 0.3
v 2.38419e-007 1.6 0.3
v 0.8 1.6 0.3
v 1.2 1.6 0.3
v -1.8 1.6 -1.5
v -1.4 1.6 -1.5
v -0.6 1.6 -1.5
v 2.38419e-007 1.6 -1.5
v 0.8 1.6 -1.5
v 1.2 1.6 -1.5
v -2 1.8 0.4
v -1.8 1.8 0.4
v -1.8 1.8 0.3
v -1.4 1.8 0.3
v -0.6 1.8 0.3
v 2.38419e-007 1.8 0.3
v 0.8 1.8 0.3
v 1.2 1.8 0.3
v 1.4 1.8 0.3
v -2 1.8 -1.5
v -1.8 1.8 -1.5
v -1.4 1.8 -1.5
v -1.2 1.8 -1.5
v -0.6 1.8 -1.5
v -0.4 1.8 -1.5
v -0.2 1.8 -1.5
v 2.38419e-007 1.8 -1.5
v 0.6 1.8 -1.5
v 0.8 1.8 -1.5
v 1.2 1.8 -1.5
v 1.4 1.8 -1.5
v -0.4 1.8 -1.7
v -0.2 1.8 -1.7
v -1.2 1.8 -3.3
v -1 1.8 -3.3
v -0.4 1.8 -3.3
v -0.2 1.8 -3.3
v 0.4 1.8 -3.3
v 0.6 1.8 -3.3
v -1 1.8 -3.5
v -0.4 1.8 -3.5
v -0.2 1.8 -3.5
v 0.4 1.8 -3.5
v -1.4 2 -1.5
v -1.2 2 -1.5
v 0.6 2 -1.5
v 0.8 2 -1.5
v -1.4 2 -3.3
v -1.2 2 -3.3
v -1 2 -3.3
v -0.4 2 -3.3
v -0.2 2 -3.3
v 0.4 2 -3.3
v 0.6 2 -3.3
v 0.8 2 -3.3
v -1.2 2 -3.5
v -1 2 -3.5
v -0.4 2 -3.5
v -0.2 2 -3.5
v 0.4 2 -3.5
v 0.6 2 -3.5
v -1.1 2.5 0.3
v -1 2.5 0.3
v -0.4 2.5 0.3
v -0.2 2.5 0.3
v 0.4 2.5 0.3
v 0.5 2.5 0.3
v -1.1 2.5 -1.5
v -1 2.5 -1.5
v -0.4 2.5 -1.5
v -0.2 2.5 -1.5
v 0.4 2.5 -1.5
v 0.5 2.5 -1.5
v -1.1 2.5 -3.5
v -1 2.5 -3.5
v -0.4 2.5 -3.5
v -0.2 2.5 -3.5
v 0.4 2.5 -3.5
v 0.5 2.5 -3.5
v -2 2.6 0.3
v -1.6 2.6 0.3
v -1 2.6 0.3
v -0.4 2.6 0.3
v -0.2 2.6 0.3
v 0.4 2.6 0.3
v 1 2.6 0.3
v 1.4 2.6 0.3
v -2 2.6 -1.3
v -1.6 2.6 -1.3
v 1 2.6 -1.3
v 1.4 2.6 -1.3
v -1 2.6 -1.5
v -0.4 2.6 -1.5
v -0.2 2.6 -1.5
v 0.4 2.6 -1.5
v -1 2.6 -3.5
v -0.4 2.6 -3.5
v -0.2 2.6 -3.5
v 0.4 2.6 -3.5
v -0.4 2.8 -1.5
v -0.2 2.8 -1.5
v -0.4 2.8 -1.7
v -0.2 2.8 -1.7
v -0.3 3.2 0.1
v -0.2 3.2 0.1
v -0.3 3.2 -0.7
v -0.2 3.2 -0.7
v -1.8 1.7 0.4
v -1.7 1.7 0.4
v -1.8 1.7 0.3
v -1.7 1.7 0.3
v -1.9 1.9 0.4
v -1.8 1.9 0.4
v -1.9 1.9 0.3
v -1.8 1.9 0.3
v -2 2 0.4
v -1.9 2 0.4
v -1.9 2 0.3
v -1.8 2 0.3
v -1 2 0.3
v -0.4 2 0.3
v -0.2 2 0.3
v 0.4 2 0.3
v 1.2 2 0.3
v 1.4 2 0.3
v -2 2 -1.3
v -1.8 2 -1.3
v 1.2 2 -1.3
v 1.4 2 -1.3
v -1 2 -1.5
v -0.4 2 -1.5
v -0.2 2 -1.5
v 0.4 2 -1.5
v -0.4 2 -1.7
v -0.2 2 -1.7
v -1 2 -3.5
v -0.4 2 -3.5
v -0.2 2 -3.5
v 0.4 2 -3.5
v -1.1 2.1 0.3
v -1 2.1 0.3
v -0.4 2.1 0.3
v -0.2 2.1 0.3
v 0.4 2.1 0.3
v 0.5 2.1 0.3
v -1.1 2.1 -1.5
v -1 2.1 -1.5
v -0.4 2.1 -1.5
v -0.2 2.1 -1.5
v 0.4 2.1 -1.5
v 0.5 2.1 -1.5
v -0.4 2.1 -1.7
v -0.2 2.1 -1.7
v -1.1 2.1 -3.5
v -1 2.1 -3.5
v -0.4 2.1 -3.5
v -0.2 2.1 -3.5
v 0.4 2.1 -3.5
v 0.5 2.1 -3.5
v -1.8 2.2 0.3
v -1.6 2.2 0.3
v 1 2.2 0.3
v 1.2 2.2 0.3
v -1.8 2.2 -1.3
v -1.6 2.2 -1.3
v 1 2.2 -1.3
v 1.2 2.2 -1.3
v -1.4 2.6 -1.5
v -1.2 2.6 -1.5
v -0.4 2.6 -1.5
v -0.2 2.6 -1.5
v 0.6 2.6 -1.5
v 0.8 2.6 -1.5
v -0.4 2.6 -1.7
v -0.2 2.6 -1.7
v -1.4 2.6 -3.3
v -1.2 2.6 -3.3
v -1 2.6 -3.3
v -0.4 2.6 -3.3
v -0.2 2.6 -3.3
v 0.4 2.6 -3.3
v 0.6 2.6 -3.3
v 0.8 2.6 -3.3
v -1.2 2.6 -3.5
v -1 2.6 -3.5
v -0.4 2.6 -3.5
v -0.2 2.6 -3.5
v 0.4 2.6 -3.5
v 0.6 2.6 -3.5
v -2 2.8 0.3
v -1.8 2.8 0.3
v 1.2 2.8 0.3
v 1.4 2.8 0.3
v -0.3 2.8 0.1
v -0.2 2.8 0.1
v -0.3 2.8 -0.7
v -0.2 2.8 -0.7
v -2 2.8 -1.5
v -1.8 2.8 -1.5
v -1.2 2.8 -1.5
v -0.5 2.8 -1.5
v -0.0999999 2.8 -1.5
v 0.6 2.8 -1.5
v 1.2 2.8 -1.5
v 1.4 2.8 -1.5
v -0.5 2.8 -1.9
v -0.0999999 2.8 -1.9
v -1.2 2.8 -3.3
v -1 2.8 -3.3
v -0.4 2.8 -3.3
v -0.2 2.8 -3.3
v 0.4 2.8 -3.3
v 0.6 2.8 -3.3
v -1 2.8 -3.5
v -0.4 2.8 -3.5
v -0.2 2.8 -3.5
v 0.4 2.8 -3.5
v -1.8 3 0.3
v -1 3 0.3
v 0.4 3 0.3
v 1.2 3 0.3
v -1.8 3 -1.5
v -1 3 -1.5
v 0.4 3 -1.5
v 1.2 3 -1.5
v -1 3.2 0.3
v 0.4 3.2 0.3
v -0.5 3.2 0.1
v -0.0999999 3.2 0.1
v -0.5 3.2 -0.7
v -0.0999999 3.2 -0.7
v -1 3.2 -1.5
v -0.5 3.2 -1.5
v -0.0999999 3.2 -1.5
v 0.4 3.2 -1.5
v -0.5 3.2 -1.9
v -0.0999999 3.2 -1.9
v -0.5 3.4 0.1
v -0.0999999 3.4 0.1
v -0.5 3.4 -0.7
v -0.0999999 3.4 -0.7

# faces
f 3/4/1 2/4/1 1/4/1
f 4/4/1 2/4/1 3/4/1
f 6/4/1 2/4/1 4/4/1
f 7/4/1 6/4/1 5/4/1
f 8/4/1 2/4/1 6/4/1
f 8/4/1 6/4/1 7/4/1
f 11/4/1 10/4/1 9/4/1
f 12/4/1 10/4/1 11/4/1
f 13/4/1 10/4/1 12/4/1
f 14/4/1 10/4/1 13/4/1
f 17/4/1 16/4/1 15/4/1
f 18/4/1 16/4/1 17/4/1
f 21/4/1 20/4/1 19/4/1
f 22/4/1 20/4/1 21/4/1
f 25/2/1 24/2/1 23/2/1
f 26/2/1 24/2/1 25/2/1
f 29/2/1 28/2/1 27/2/1
f 30/2/1 28/2/1 29/2/1
f 33/2/1 32/2/1 31/2/1
f 34/2/1 32/2/1 33/2/1
f 37/2/1 35/2/1 34/2/1
f 38/2/1 35/2/1 37/2/1
f 39/2/1 37/2/1 36/2/1
f 40/2/1 37/2/1 39/2/1
f 43/2/1 42/2/1 41/2/1
f 44/2/1 42/2/1 43/2/1
f 47/2/1 46/2/1 45/2/1
f 48/2/1 46/2/1 47/2/1
f 51/4/1 50/4/1 49/4/1
f 52/4/1 50/4/1 51/4/1
f 55/4/1 54/4/1 53/4/1
f 56/4/1 54/4/1 55/4/1
f 61/3/1 58/3/1 57/3/1
f 62/3/1 58/3/1 61/3/1
f 63/1/1 60/1/1 59/1/1
f 64/1/1 60/1/1 63/1/1
f 69/4/1 66/4/1 65/4/1
f 70/4/1 66/4/1 69/4/1
f 71/2/1 68/2/1 67/2/1
f 72/2/1 68/2/1 71/2/1
f 76/4/1 74/4/1 73/4/1
f 77/2/1 75/2/1 74/2/1
f 77/4/1 74/4/1 76/4/1
f 78/2/1 75/2/1 77/2/1
f 83/2/1 80/2/1 79/2/1
f 84/2/1 80/2/1 83/2/1
f 85/2/1 82/2/1 81/2/1
f 86/2/1 82/2/1 85/2/1
f 93/2/1 88/2/1 87/2/1
f 94/2/1 88/2/1 93/2/1
f 95/2/1 90/2/1 89/2/1
f 96/2/1 90/2/1 95/2/1
f 97/4/1 92/4/1 91/4/1
f 98/4/1 92/4/1 97/4/1
f 102/4/1 100/4/1 99/4/1
f 103/2/1 101/2/1 100/2/1
f 103/4/1 100/4/1 102/4/1
f 104/2/1 101/2/1 103/2/1
f 108/4/1 106/4/1 105/4/1
f 109/2/1 107/2/1 106/2/1
f 109/4/1 106/4/1 108/4/1
f 110/2/1 107/2/1 109/2/1
f 114/4/1 112/4/1 111/4/1
f 115/2/1 113/2/1 112/2/1
f 115/4/1 112/4/1 114/4/1
f 116/2/1 113/2/1 115/2/1
f 119/4/1 118/4/1 117/4/1
f 120/4/1 118/4/1 119/4/1
f 121/4/2 122/4/2 123/4/2
f 123/4/2 122/4/2 124/4/2
f 125/4/2 126/4/2 127/4/2
f 127/4/2 126/4/2 128/4/2
f 129/4/2 130/4/2 131/4/2
f 131/4/2 130/4/2 132/4/2
f 133/4/2 134/4/2 135/4/2
f 135/4/2 134/4/2 136/4/2
f 137/4/2 138/4/2 140/4/2
f 138/2/2 139/2/2 141/2/2
f 140/4/2 138/4/2 141/4/2
f 141/2/2 139/2/2 142/2/2
f 143/4/2 144/4/2 146/4/2
f 144/2/2 145/2/2 147/2/2
f 146/4/2 144/4/2 147/4/2
f 147/2/2 145/2/2 148/2/2
f 149/4/2 150/4/2 152/4/2
f 150/2/2 151/2/2 153/2/2
f 152/4/2 150/4/2 153/4/2
f 153/2/2 151/2/2 154/2/2
f 155/2/2 156/2/2 159/2/2
f 159/2/2 156/2/2 160/2/2
f 157/2/2 158/2/2 161/2/2
f 161/2/2 158/2/2 162/2/2
f 163/2/2 164/2/2 167/2/2
f 167/2/2 164/2/2 168/2/2
f 165/2/2 166/2/2 169/2/2
f 169/2/2 166/2/2 170/2/2
f 171/1/2 172/1/2 173/1/2
f 173/1/2 172/1/2 174/1/2
f 175/4/2 176/4/2 179/4/2
f 179/4/2 176/4/2 180/4/2
f 177/2/2 178/2/2 181/2/2
f 181/2/2 178/2/2 182/2/2
f 183/4/2 184/4/2 186/4/2
f 184/2/2 185/2/2 187/2/2
f 186/4/2 184/4/2 187/4/2
f 187/2/2 185/2/2 188/2/2
f 189/3/2 190/3/2 193/3/2
f 193/3/2 190/3/2 194/3/2
f 191/1/2 192/1/2 195/1/2
f 195/1/2 192/1/2 196/1/2
f 197/4/2 198/4/2 199/4/2
f 199/4/2 198/4/2 200/4/2
f 201/2/2 202/2/2 203/2/2
f 203/2/2 202/2/2 204/2/2
f 205/2/2 206/2/2 207/2/2
f 207/2/2 206/2/2 208/2/2
f 209/4/2 210/4/2 211/4/2
f 211/4/2 210/4/2 212/4/2
f 213/2/2 214/2/2 215/2/2
f 215/2/2 214/2/2 216/2/2
f 216/2/2 217/2/2 219/2/2
f 219/2/2 217/2/2 220/2/2
f 218/2/2 219/2/2 221/2/2
f 221/2/2 219/2/2 222/2/2
f 223/2/2 224/2/2 225/2/2
f 225/2/2 224/2/2 226/2/2
f 227/2/2 228/2/2 229/2/2
f 229/2/2 228/2/2 230/2/2
f 231/4/2 232/4/2 233/4/2
f 233/4/2 232/4/2 234/4/2
f 235/4/2 236/4/2 237/4/2
f 237/4/2 236/4/2 238/4/2
f 239/4/2 240/4/2 241/4/2
f 241/4/2 240/4/2 242/4/2
f 243/4/2 244/4/2 245/4/2
f 245/4/2 244/4/2 246/4/2
f 246/4/2 244/4/2 248/4/2
f 247/4/2 248/4/2 249/4/2
f 248/4/2 244/4/2 250/4/2
f 249/4/2 248/4/2 250/4/2
f 253/4/3 252/4/3 251/4/3
f 254/4/3 252/4/3 253/4/3
f 257/4/3 253/4/3 251/4/3
f 258/4/3 253/4/3 257/4/3
f 259/4/3 256/4/3 255/4/3
f 260/4/3 256/4/3 259/4/3
f 267/4/3 264/4/3 263/4/3
f 268/4/3 264/4/3 267/4/3
f 270/4/3 262/4/3 261/4/3
f 273/4/3 269/4/3 268/4/3
f 273/4/3 266/4/3 265/4/3
f 273/4/3 267/4/3 266/4/3
f 273/4/3 268/4/3 267/4/3
f 274/4/3 269/4/3 273/4/3
f 274/4/3 273/4/3 272/4/3
f 275/4/3 269/4/3 274/4/3
f 276/4/3 271/4/3 270/4/3
f 276/4/3 270/4/3 261/4/3
f 277/4/3 274/4/3 272/4/3
f 278/4/3 274/4/3 277/4/3
f 279/2/3 275/2/3 274/2/3
f 279/4/3 274/4/3 278/4/3
f 279/2/3 276/2/3 275/2/3
f 280/4/3 271/4/3 276/4/3
f 280/2/3 276/2/3 279/2/3
f 281/4/3 279/4/3 278/4/3
f 281/4/3 280/4/3 279/4/3
f 282/4/3 280/4/3 281/4/3
f 283/4/3 281/4/3 278/4/3
f 284/4/3 281/4/3 283/4/3
f 285/4/3 280/4/3 282/4/3
f 286/4/3 271/4/3 280/4/3
f 286/4/3 280/4/3 285/4/3
f 287/4/3 271/4/3 286/4/3
f 290/4/3 283/4/3 278/4/3
f 291/4/3 283/4/3 290/4/3
f 291/4/3 290/4/3 289/4/3
f 294/4/3 288/4/3 287/4/3
f 294/4/3 287/4/3 286/4/3
f 295/4/3 292/4/3 291/4/3
f 295/4/3 291/4/3 289/4/3
f 296/4/3 292/4/3 295/4/3
f 297/4/3 294/4/3 293/4/3
f 298/4/3 288/4/3 294/4/3
f 298/4/3 294/4/3 297/4/3
f 299/4/3 295/4/3 289/4/3
f 300/4/3 295/4/3 299/4/3
f 301/4/3 295/4/3 300/4/3
f 304/4/3 288/4/3 298/4/3
f 305/4/3 288/4/3 304/4/3
f 306/4/3 288/4/3 305/4/3
f 307/4/3 302/4/3 301/4/3
f 308/4/3 304/4/3 303/4/3
f 308/4/3 305/4/3 304/4/3
f 310/4/3 301/4/3 300/4/3
f 310/4/3 308/4/3 307/4/3
f 310/4/3 307/4/3 301/4/3
f 311/4/3 308/4/3 310/4/3
f 312/4/3 305/4/3 308/4/3
f 312/4/3 308/4/3 311/4/3
f 313/4/3 311/4/3 310/4/3
f 313/4/3 310/4/3 309/4/3
f 313/2/3 312/2/3 311/2/3
f 314/2/3 312/2/3 313/2/3
f 315/4/3 305/4/3 312/4/3
f 315/2/3 312/2/3 314/2/3
f 316/4/3 314/4/3 313/4/3
f 316/4/3 313/4/3 309/4/3
f 317/4/3 314/4/3 316/4/3
f 318/4/3 314/4/3 317/4/3
f 319/4/3 314/4/3 318/4/3
f 320/4/3 305/4/3 315/4/3
f 321/4/3 305/4/3 320/4/3
f 322/4/3 318/4/3 317/4/3
f 323/4/3 318/4/3 322/4/3
f 324/4/3 320/4/3 315/4/3
f 325/4/3 320/4/3 324/4/3
f 328/1/3 327/1/3 326/1/3
f 329/1/3 327/1/3 328/1/3
f 332/4/3 331/4/3 330/4/3
f 333/4/3 331/4/3 332/4/3
f 336/4/3 335/4/3 334/4/3
f 337/4/3 335/4/3 336/4/3
f 338/4/3 335/4/3 337/4/3
f 339/4/3 335/4/3 338/4/3
f 343/4/3 341/4/3 340/4/3
f 344/4/3 343/4/3 342/4/3
f 345/4/3 341/4/3 343/4/3
f 345/4/3 343/4/3 344/4/3
f 351/2/3 347/2/3 346/2/3
f 351/2/3 348/2/3 347/2/3
f 352/2/3 348/2/3 351/2/3
f 353/2/3 348/2/3 352/2/3
f 354/2/3 350/2/3 349/2/3
f 355/2/3 350/2/3 354/2/3
f 356/4/4 357/4/4 358/4/4
f 358/4/4 357/4/4 359/4/4
f 360/1/4 361/1/4 362/1/4
f 362/1/4 361/1/4 363/1/4
f 364/4/4 365/4/4 367/4/4
f 367/4/4 365/4/4 368/4/4
f 366/4/4 367/4/4 370/4/4
f 368/4/4 369/4/4 370/4/4
f 367/4/4 368/4/4 370/4/4
f 370/4/4 369/4/4 371/4/4
f 371/4/4 369/4/4 372/4/4
f 372/4/4 369/4/4 373/4/4
f 371/4/4 372/4/4 374/4/4
f 374/4/4 372/4/4 375/4/4
f 373/4/4 369/4/4 376/4/4
f 376/4/4 369/4/4 377/4/4
f 377/4/4 369/4/4 378/4/4
f 377/4/4 378/4/4 382/4/4
f 378/4/4 379/4/4 382/4/4
f 382/4/4 379/4/4 383/4/4
f 380/4/4 381/4/4 384/4/4
f 380/4/4 384/4/4 389/4/4
f 384/4/4 385/4/4 389/4/4
f 385/4/4 386/4/4 389/4/4
f 389/4/4 386/4/4 390/4/4
f 390/4/4 386/4/4 391/4/4
f 387/4/4 388/4/4 392/4/4
f 392/4/4 388/4/4 393/4/4
f 380/4/4 389/4/4 396/4/4
f 396/4/4 389/4/4 397/4/4
f 394/4/4 395/4/4 398/4/4
f 398/4/4 395/4/4 399/4/4
f 394/4/4 398/4/4 403/4/4
f 400/4/4 401/4/4 405/4/4
f 405/4/4 401/4/4 406/4/4
f 402/4/4 403/4/4 407/4/4
f 405/4/4 406/4/4 408/4/4
f 406/4/4 407/4/4 408/4/4
f 404/4/4 405/4/4 408/4/4
f 408/4/4 407/4/4 409/4/4
f 407/4/4 403/4/4 410/4/4
f 409/4/4 407/4/4 410/4/4
f 403/4/4 398/4/4 410/4/4
f 410/4/4 398/4/4 411/4/4
f 409/4/4 410/4/4 412/4/4
f 412/4/4 410/4/4 413/4/4
f 414/3/4 415/3/4 416/3/4
f 416/3/4 415/3/4 417/3/4
f 418/2/4 419/2/4 421/2/4
f 421/2/4 419/2/4 422/2/4
f 420/2/4 421/2/4 424/2/4
f 424/2/4 421/2/4 425/2/4
f 422/2/4 423/2/4 426/2/4
f 426/2/4 423/2/4 427/2/4
f 428/2/4 429/2/4 432/2/4
f 432/2/4 429/2/4 433/2/4
f 430/2/4 431/2/4 434/2/4
f 434/2/4 431/2/4 435/2/4
f 436/2/4 437/2/4 440/2/4
f 440/2/4 437/2/4 441/2/4
f 438/2/4 439/2/4 442/2/4
f 442/2/4 439/2/4 443/2/4
f 441/2/4 442/2/4 444/2/4
f 444/2/4 442/2/4 445/2/4
f 446/2/4 447/2/4 448/2/4
f 448/2/4 447/2/4 449/2/4
f 446/2/4 448/2/4 451/2/4
f 451/2/4 448/2/4 452/2/4
f 449/2/4 447/2/4 453/2/4
f 453/2/4 447/2/4 454/2/4
f 450/2/4 451/2/4 456/2/4
f 456/2/4 451/2/4 457/2/4
f 454/2/4 455/2/4 460/2/4
f 460/2/4 455/2/4 461/2/4
f 457/2/4 458/2/4 463/2/4
f 463/2/4 458/2/4 464/2/4
f 459/2/4 460/2/4 465/2/4
f 465/2/4 460/2/4 466/2/4
f 462/2/4 463/2/4 468/2/4
f 468/2/4 463/2/4 469/2/4
f 466/2/4 467/2/4 472/2/4
f 472/2/4 467/2/4 473/2/4
f 469/2/4 470/2/4 474/2/4
f 471/2/4 472/2/4 475/2/4
f 469/2/4 474/2/4 476/2/4
f 474/2/4 475/2/4 476/2/4
f 475/2/4 472/2/4 477/2/4
f 476/2/4 475/2/4 477/2/4
f 480/4/5 479/4/5 478/4/5
f 486/4/5 480/4/5 478/4/5
f 486/4/5 481/4/5 480/4/5
f 487/4/5 481/4/5 486/4/5
f 488/4/5 483/4/5 482/4/5
f 489/4/5 483/4/5 488/4/5
f 490/4/5 485/4/5 484/4/5
f 491/4/5 485/4/5 490/4/5
f 494/4/5 493/4/5 492/4/5
f 501/4/5 494/4/5 492/4/5
f 502/4/5 494/4/5 501/4/5
f 503/4/5 496/4/5 495/4/5
f 504/4/5 496/4/5 503/4/5
f 505/4/5 496/4/5 504/4/5
f 508/4/5 498/4/5 497/4/5
f 509/4/5 498/4/5 508/4/5
f 510/4/5 498/4/5 509/4/5
f 511/4/5 500/4/5 499/4/5
f 512/4/5 500/4/5 511/4/5
f 513/2/5 506/2/5 505/2/5
f 513/2/5 505/2/5 504/2/5
f 514/2/5 509/2/5 508/2/5
f 514/2/5 508/2/5 507/2/5
f 515/2/5 513/2/5 504/2/5
f 515/2/5 514/2/5 513/2/5
f 516/2/5 514/2/5 515/2/5
f 517/2/5 514/2/5 516/2/5
f 518/2/5 509/2/5 514/2/5
f 518/2/5 514/2/5 517/2/5
f 519/2/5 509/2/5 518/2/5
f 520/2/5 509/2/5 519/2/5
f 521/2/5 517/2/5 516/2/5
f 522/2/5 517/2/5 521/2/5
f 523/2/5 519/2/5 518/2/5
f 524/2/5 519/2/5 523/2/5
f 529/2/5 526/2/5 525/2/5
f 530/2/5 526/2/5 529/2/5
f 535/2/5 528/2/5 527/2/5
f 536/2/5 528/2/5 535/2/5
f 537/2/5 531/2/5 530/2/5
f 538/2/5 531/2/5 537/2/5
f 539/2/5 533/2/5 532/2/5
f 540/2/5 533/2/5 539/2/5
f 541/2/5 535/2/5 534/2/5
f 542/2/5 535/2/5 541/2/5
f 549/4/5 544/4/5 543/4/5
f 550/4/5 544/4/5 549/4/5
f 551/4/5 546/4/5 545/4/5
f 552/4/5 546/4/5 551/4/5
f 553/4/5 548/4/5 547/4/5
f 554/4/5 548/4/5 553/4/5
f 555/2/5 550/2/5 549/2/5
f 556/2/5 550/2/5 555/2/5
f 557/2/5 552/2/5 551/2/5
f 558/2/5 552/2/5 557/2/5
f 559/2/5 554/2/5 553/2/5
f 560/2/5 554/2/5 559/2/5
f 569/4/5 562/4/5 561/4/5
f 570/4/5 562/4/5 569/4/5
f 571/4/5 568/4/5 567/4/5
f 572/4/5 568/4/5 571/4/5
f 573/4/5 564/4/5 563/4/5
f 574/4/5 564/4/5 573/4/5
f 575/4/5 566/4/5 565/4/5
f 576/4/5 566/4/5 575/4/5
f 577/2/5 574/2/5 573/2/5
f 578/2/5 574/2/5 577/2/5
f 579/2/5 576/2/5 575/2/5
f 580/2/5 576/2/5 579/2/5
f 583/3/5 582/3/5 581/3/5
f 584/3/5 582/3/5 583/3/5
f 587/1/5 586/1/5 585/1/5
f 588/1/5 586/1/5 587/1/5
f 589/4/6 590/4/6 591/4/6
f 591/4/6 590/4/6 592/4/6
f 593/4/6 594/4/6 595/4/6
f 595/4/6 594/4/6 596/4/6
f 597/4/6 598/4/6 599/4/6
f 597/4/6 599/4/6 607/4/6
f 599/4/6 600/4/6 607/4/6
f 607/4/6 600/4/6 608/4/6
f 605/4/6 606/4/6 609/4/6
f 609/4/6 606/4/6 610/4/6
f 601/4/6 602/4/6 611/4/6
f 611/4/6 602/4/6 612/4/6
f 603/4/6 604/4/6 613/4/6
f 613/4/6 604/4/6 614/4/6
f 611/2/6 612/2/6 615/2/6
f 613/2/6 614/2/6 616/2/6
f 611/2/6 615/2/6 617/2/6
f 617/2/6 615/2/6 618/2/6
f 616/2/6 614/2/6 619/2/6
f 619/2/6 614/2/6 620/2/6
f 621/4/6 622/4/6 627/4/6
f 627/4/6 622/4/6 628/4/6
f 623/4/6 624/4/6 629/4/6
f 629/4/6 624/4/6 630/4/6
f 625/4/6 626/4/6 631/4/6
f 631/4/6 626/4/6 632/4/6
f 627/2/6 628/2/6 635/2/6
f 635/2/6 628/2/6 636/2/6
f 633/2/6 634/2/6 637/2/6
f 637/2/6 634/2/6 638/2/6
f 631/2/6 632/2/6 639/2/6
f 639/2/6 632/2/6 640/2/6
f 641/4/6 642/4/6 645/4/6
f 645/4/6 642/4/6 646/4/6
f 643/4/6 644/4/6 647/4/6
f 647/4/6 644/4/6 648/4/6
f 651/2/6 652/2/6 655/2/6
f 655/2/6 652/2/6 656/2/6
f 649/2/6 650/2/6 657/2/6
f 657/2/6 650/2/6 658/2/6
f 653/2/6 654/2/6 663/2/6
f 663/2/6 654/2/6 664/2/6
f 658/2/6 659/2/6 665/2/6
f 665/2/6 659/2/6 666/2/6
f 660/2/6 661/2/6 667/2/6
f 667/2/6 661/2/6 668/2/6
f 662/2/6 663/2/6 669/2/6
f 669/2/6 663/2/6 670/2/6
f 675/4/6 676/4/6 677/4/6
f 677/4/6 676/4/6 678/4/6
f 671/4/6 672/4/6 679/4/6
f 679/4/6 672/4/6 680/4/6
f 673/4/6 674/4/6 685/4/6
f 685/4/6 674/4/6 686/4/6
f 681/2/6 682/2/6 687/2/6
f 683/2/6 684/2/6 688/2/6
f 681/2/6 687/2/6 689/2/6
f 687/2/6 688/2/6 689/2/6
f 689/2/6 688/2/6 690/2/6
f 690/2/6 688/2/6 691/2/6
f 691/2/6 688/2/6 692/2/6
f 688/2/6 684/2/6 693/2/6
f 692/2/6 688/2/6 693/2/6
f 693/2/6 684/2/6 694/2/6
f 690/2/6 691/2/6 695/2/6
f 695/2/6 691/2/6 696/2/6
f 692/2/6 693/2/6 697/2/6
f 697/2/6 693/2/6 698/2/6
f 699/4/6 700/4/6 703/4/6
f 703/4/6 700/4/6 704/4/6
f 701/4/6 702/4/6 705/4/6
f 705/4/6 702/4/6 706/4/6
f 707/4/6 708/4/6 709/4/6
f 709/4/6 708/4/6 710/4/6
f 707/4/6 709/4/6 711/4/6
f 710/4/6 708/4/6 712/4/6
f 707/4/6 711/4/6 713/4/6
f 711/4/6 712/4/6 713/4/6
f 713/4/6 712/4/6 714/4/6
f 712/4/6 708/4/6 715/4/6
f 714/4/6 712/4/6 715/4/6
f 715/4/6 708/4/6 716/4/6
f 714/3/6 715/3/6 717/3/6
f 717/3/6 715/3/6 718/3/6
f 719/1/6 720/1/6 721/1/6
f 721/1/6 720/1/6 722/1/6
